v 1.250000 0.000000 0.000000
v 1.176777 0.176777 0.000000
v 1.000000 0.250000 0.000000
v 0.823223 0.176777 0.000000
v 0.750000 0.000000 0.000000
v 0.823223 -0.176777 0.000000
v 1.000000 -0.250000 0.000000
v 1.176777 -0.176777 0.000000
v 1.011271 0.000000 -0.734732
v 0.952032 0.176777 -0.691692
v 0.809017 0.250000 -0.587785
v 0.666002 0.176777 -0.483878
v 0.606763 0.000000 -0.440839
v 0.666002 -0.176777 -0.483878
v 0.809017 -0.250000 -0.587785
v 0.952032 -0.176777 -0.691692
v 0.386271 0.000000 -1.188821
v 0.363644 0.176777 -1.119181
v 0.309017 0.250000 -0.951056
v 0.254390 0.176777 -0.782932
v 0.231763 0.000000 -0.713292
v 0.254390 -0.176777 -0.782932
v 0.309017 -0.250000 -0.951056
v 0.363644 -0.176777 -1.119181
v -0.386271 0.000000 -1.188821
v -0.363644 0.176777 -1.119181
v -0.309017 0.250000 -0.951056
v -0.254390 0.176777 -0.782932
v -0.231763 0.000000 -0.713292
v -0.254390 -0.176777 -0.782932
v -0.309017 -0.250000 -0.951056
v -0.363644 -0.176777 -1.119181
v -1.011271 0.000000 -0.734731
v -0.952033 0.176777 -0.691692
v -0.809017 0.250000 -0.587785
v -0.666002 0.176777 -0.483878
v -0.606763 0.000000 -0.440839
v -0.666002 -0.176777 -0.483878
v -0.809017 -0.250000 -0.587785
v -0.952033 -0.176777 -0.691692
v -1.250000 0.000000 -0.000000
v -1.176777 0.176777 -0.000000
v -1.000000 0.250000 -0.000000
v -0.823223 0.176777 -0.000000
v -0.750000 0.000000 -0.000000
v -0.823223 -0.176777 -0.000000
v -1.000000 -0.250000 -0.000000
v -1.176777 -0.176777 -0.000000
v -1.011271 0.000000 0.734731
v -0.952033 0.176777 0.691692
v -0.809017 0.250000 0.587785
v -0.666002 0.176777 0.483878
v -0.606763 0.000000 0.440839
v -0.666002 -0.176777 0.483878
v -0.809017 -0.250000 0.587785
v -0.952033 -0.176777 0.691692
v -0.386271 0.000000 1.188821
v -0.363644 0.176777 1.119181
v -0.309017 0.250000 0.951056
v -0.254390 0.176777 0.782932
v -0.231763 0.000000 0.713292
v -0.254390 -0.176777 0.782932
v -0.309017 -0.250000 0.951056
v -0.363644 -0.176777 1.119181
v 0.386271 0.000000 1.188821
v 0.363644 0.176777 1.119181
v 0.309017 0.250000 0.951056
v 0.254390 0.176777 0.782932
v 0.231763 0.000000 0.713292
v 0.254390 -0.176777 0.782932
v 0.309017 -0.250000 0.951056
v 0.363644 -0.176777 1.119181
v 1.011271 0.000000 0.734732
v 0.952032 0.176777 0.691692
v 0.809017 0.250000 0.587786
v 0.666001 0.176777 0.483879
v 0.606763 0.000000 0.440839
v 0.666001 -0.176777 0.483879
v 0.809017 -0.250000 0.587786
v 0.952032 -0.176777 0.691692
vt 0.600000 0.500000
vt 0.700000 0.500000
vt 0.700000 0.625000
vt 0.600000 0.625000
vt 0.700000 0.750000
vt 0.600000 0.750000
vt 0.700000 0.875000
vt 0.600000 0.875000
vt 0.700000 1.000000
vt 0.600000 1.000000
vt 0.600000 0.000000
vt 0.700000 0.000000
vt 0.700000 0.125000
vt 0.600000 0.125000
vt 0.700000 0.250000
vt 0.600000 0.250000
vt 0.700000 0.375000
vt 0.600000 0.375000
vt 0.800000 0.500000
vt 0.800000 0.625000
vt 0.800000 0.750000
vt 0.800000 0.875000
vt 0.800000 1.000000
vt 0.800000 0.000000
vt 0.800000 0.125000
vt 0.800000 0.250000
vt 0.800000 0.375000
vt 0.900000 0.500000
vt 0.900000 0.625000
vt 0.900000 0.750000
vt 0.900000 0.875000
vt 0.900000 1.000000
vt 0.900000 0.000000
vt 0.900000 0.125000
vt 0.900000 0.250000
vt 0.900000 0.375000
vt 1.000000 0.500000
vt 1.000000 0.625000
vt 1.000000 0.750000
vt 1.000000 0.875000
vt 1.000000 1.000000
vt 1.000000 0.000000
vt 1.000000 0.125000
vt 1.000000 0.250000
vt 1.000000 0.375000
vt -0.000000 0.500000
vt 0.100000 0.500000
vt 0.100000 0.625000
vt -0.000000 0.625000
vt 0.100000 0.750000
vt -0.000000 0.750000
vt 0.100000 0.875000
vt -0.000000 0.875000
vt 0.100000 1.000000
vt -0.000000 1.000000
vt -0.000000 0.000000
vt 0.100000 0.000000
vt 0.100000 0.125000
vt -0.000000 0.125000
vt 0.100000 0.250000
vt -0.000000 0.250000
vt 0.100000 0.375000
vt -0.000000 0.375000
vt 0.200000 0.500000
vt 0.200000 0.625000
vt 0.200000 0.750000
vt 0.200000 0.875000
vt 0.200000 1.000000
vt 0.200000 0.000000
vt 0.200000 0.125000
vt 0.200000 0.250000
vt 0.200000 0.375000
vt 0.300000 0.500000
vt 0.300000 0.625000
vt 0.300000 0.750000
vt 0.300000 0.875000
vt 0.300000 1.000000
vt 0.300000 0.000000
vt 0.300000 0.125000
vt 0.300000 0.250000
vt 0.300000 0.375000
vt 0.400000 0.500000
vt 0.400000 0.625000
vt 0.400000 0.750000
vt 0.400000 0.875000
vt 0.400000 1.000000
vt 0.400000 0.000000
vt 0.400000 0.125000
vt 0.400000 0.250000
vt 0.400000 0.375000
vt 0.500000 0.500000
vt 0.500000 0.625000
vt 0.500000 0.750000
vt 0.500000 0.875000
vt 0.500000 1.000000
vt 0.500000 0.000000
vt 0.500000 0.125000
vt 0.500000 0.250000
vt 0.500000 0.375000
vn 0.8849 0.3665 -0.2875
vn 0.3798 0.9168 -0.1234
vn -0.3798 0.9168 0.1234
vn -0.8849 0.3665 0.2875
vn -0.8849 -0.3665 0.2875
vn -0.3798 -0.9168 0.1234
vn 0.3798 -0.9168 -0.1234
vn 0.8849 -0.3665 -0.2875
vn 0.5469 0.3665 -0.7527
vn 0.2347 0.9168 -0.3230
vn -0.2347 0.9168 0.3230
vn -0.5469 0.3665 0.7527
vn -0.5469 -0.3665 0.7527
vn -0.2347 -0.9168 0.3230
vn 0.2347 -0.9168 -0.3230
vn 0.5469 -0.3665 -0.7527
vn 0.0000 0.3665 -0.9304
vn 0.0000 0.9168 -0.3993
vn 0.0000 0.9168 0.3993
vn 0.0000 0.3665 0.9304
vn 0.0000 -0.3665 0.9304
vn 0.0000 -0.9168 0.3993
vn 0.0000 -0.9168 -0.3993
vn 0.0000 -0.3665 -0.9304
vn -0.5469 0.3665 -0.7527
vn -0.2347 0.9168 -0.3230
vn 0.2347 0.9168 0.3230
vn 0.5469 0.3665 0.7527
vn 0.5469 -0.3665 0.7527
vn 0.2347 -0.9168 0.3230
vn -0.2347 -0.9168 -0.3230
vn -0.5469 -0.3665 -0.7527
vn -0.8849 0.3665 -0.2875
vn -0.3798 0.9168 -0.1234
vn 0.3798 0.9168 0.1234
vn 0.8849 0.3665 0.2875
vn 0.8849 -0.3665 0.2875
vn 0.3798 -0.9168 0.1234
vn -0.3798 -0.9168 -0.1234
vn -0.8849 -0.3665 -0.2875
usemtl None
s off
f 1/1/1 9/2/1 10/3/1 2/4/1
f 2/4/2 10/3/2 11/5/2 3/6/2
f 3/6/3 11/5/3 12/7/3 4/8/3
f 4/8/4 12/7/4 13/9/4 5/10/4
f 5/11/5 13/12/5 14/13/5 6/14/5
f 6/14/6 14/13/6 15/15/6 7/16/6
f 7/16/7 15/15/7 16/17/7 8/18/7
f 8/18/8 16/17/8 9/2/8 1/1/8
f 9/2/9 17/19/9 18/20/9 10/3/9
f 10/3/10 18/20/10 19/21/10 11/5/10
f 11/5/11 19/21/11 20/22/11 12/7/11
f 12/7/12 20/22/12 21/23/12 13/9/12
f 13/12/13 21/24/13 22/25/13 14/13/13
f 14/13/14 22/25/14 23/26/14 15/15/14
f 15/15/15 23/26/15 24/27/15 16/17/15
f 16/17/16 24/27/16 17/19/16 9/2/16
f 17/19/17 25/28/17 26/29/17 18/20/17
f 18/20/18 26/29/18 27/30/18 19/21/18
f 19/21/19 27/30/19 28/31/19 20/22/19
f 20/22/20 28/31/20 29/32/20 21/23/20
f 21/24/21 29/33/21 30/34/21 22/25/21
f 22/25/22 30/34/22 31/35/22 23/26/22
f 23/26/23 31/35/23 32/36/23 24/27/23
f 24/27/24 32/36/24 25/28/24 17/19/24
f 25/28/25 33/37/25 34/38/25 26/29/25
f 26/29/26 34/38/26 35/39/26 27/30/26
f 27/30/27 35/39/27 36/40/27 28/31/27
f 28/31/28 36/40/28 37/41/28 29/32/28
f 29/33/29 37/42/29 38/43/29 30/34/29
f 30/34/30 38/43/30 39/44/30 31/35/30
f 31/35/31 39/44/31 40/45/31 32/36/31
f 32/36/32 40/45/32 33/37/32 25/28/32
f 33/46/33 41/47/33 42/48/33 34/49/33
f 34/49/34 42/48/34 43/50/34 35/51/34
f 35/51/35 43/50/35 44/52/35 36/53/35
f 36/53/36 44/52/36 45/54/36 37/55/36
f 37/56/37 45/57/37 46/58/37 38/59/37
f 38/59/38 46/58/38 47/60/38 39/61/38
f 39/61/39 47/60/39 48/62/39 40/63/39
f 40/63/40 48/62/40 41/47/40 33/46/40
f 41/47/4 49/64/4 50/65/4 42/48/4
f 42/48/3 50/65/3 51/66/3 43/50/3
f 43/50/2 51/66/2 52/67/2 44/52/2
f 44/52/1 52/67/1 53/68/1 45/54/1
f 45/57/8 53/69/8 54/70/8 46/58/8
f 46/58/7 54/70/7 55/71/7 47/60/7
f 47/60/6 55/71/6 56/72/6 48/62/6
f 48/62/5 56/72/5 49/64/5 41/47/5
f 49/64/12 57/73/12 58/74/12 50/65/12
f 50/65/11 58/74/11 59/75/11 51/66/11
f 51/66/10 59/75/10 60/76/10 52/67/10
f 52/67/9 60/76/9 61/77/9 53/68/9
f 53/69/16 61/78/16 62/79/16 54/70/16
f 54/70/15 62/79/15 63/80/15 55/71/15
f 55/71/14 63/80/14 64/81/14 56/72/14
f 56/72/13 64/81/13 57/73/13 49/64/13
f 57/73/20 65/82/20 66/83/20 58/74/20
f 58/74/19 66/83/19 67/84/19 59/75/19
f 59/75/18 67/84/18 68/85/18 60/76/18
f 60/76/17 68/85/17 69/86/17 61/77/17
f 61/78/24 69/87/24 70/88/24 62/79/24
f 62/79/23 70/88/23 71/89/23 63/80/23
f 63/80/22 71/89/22 72/90/22 64/81/22
f 64/81/21 72/90/21 65/82/21 57/73/21
f 65/82/28 73/91/28 74/92/28 66/83/28
f 66/83/27 74/92/27 75/93/27 67/84/27
f 67/84/26 75/93/26 76/94/26 68/85/26
f 68/85/25 76/94/25 77/95/25 69/86/25
f 69/87/32 77/96/32 78/97/32 70/88/32
f 70/88/31 78/97/31 79/98/31 71/89/31
f 71/89/30 79/98/30 80/99/30 72/90/30
f 72/90/29 80/99/29 73/91/29 65/82/29
f 73/91/36 1/1/36 2/4/36 74/92/36
f 74/92/35 2/4/35 3/6/35 75/93/35
f 75/93/34 3/6/34 4/8/34 76/94/34
f 76/94/33 4/8/33 5/10/33 77/95/33
f 77/96/40 5/11/40 6/14/40 78/97/40
f 78/97/39 6/14/39 7/16/39 79/98/39
f 79/98/38 7/16/38 8/18/38 80/99/38
f 80/99/37 8/18/37 1/1/37 73/91/37
